<svg width="600" height="180" viewBox="0 0 600 180" fill="none" xmlns="http://www.w3.org/2000/svg">
<rect width="600" height="180" rx="25" fill="#F58E49"/>
<g filter="url(#filter0_d_233_1094)">
<path d="M77.185 126.5L91.4396 59.0558H129.175L126.684 70.7732H103.065L99.9739 85.5814H121.979L119.441 97.2988H97.4367L93.7462 114.69H117.366L114.874 126.5H77.185ZM144.675 127.423C142.184 127.423 139.832 126.808 137.617 125.577C135.403 124.347 133.588 122.364 132.174 119.626C130.79 116.889 130.098 113.26 130.098 108.739C130.098 105.356 130.451 102.004 131.159 98.6827C131.897 95.3613 132.943 92.2243 134.296 89.2719C135.68 86.2887 137.34 83.6592 139.278 81.3834C141.246 79.0768 143.461 77.2623 145.921 75.9399C148.412 74.6175 151.103 73.9563 153.994 73.9563C156.177 73.9563 158.084 74.2792 159.714 74.925C161.344 75.5401 162.744 76.4166 163.912 77.5545C165.081 78.6924 166.034 80.0149 166.772 81.5218H167.141L169.771 74.925H180.473L169.494 126.5H159.114L159.76 119.811H159.391C158.161 121.318 156.823 122.64 155.378 123.778C153.932 124.916 152.333 125.808 150.58 126.454C148.827 127.1 146.859 127.423 144.675 127.423ZM150.119 116.213C152.026 116.213 153.794 115.475 155.424 113.998C157.054 112.491 158.453 110.539 159.622 108.14C160.791 105.741 161.621 103.204 162.113 100.528C162.359 99.2978 162.528 98.0676 162.62 96.8375C162.744 95.5765 162.805 94.2233 162.805 92.7779C162.805 90.5943 162.221 88.7952 161.052 87.3805C159.914 85.9351 158.346 85.2123 156.347 85.2123C154.993 85.2123 153.702 85.6583 152.472 86.5501C151.272 87.4113 150.165 88.6107 149.15 90.1484C148.135 91.6554 147.243 93.393 146.474 95.3613C145.736 97.2988 145.167 99.3593 144.768 101.543C144.368 103.726 144.168 105.91 144.168 108.094C144.168 110.769 144.691 112.799 145.736 114.183C146.782 115.536 148.243 116.213 150.119 116.213ZM183.841 126.5L194.774 74.925H205.384L204.416 84.4742H204.923C206.307 82.2907 207.814 80.4147 209.444 78.8462C211.074 77.2777 212.842 76.0783 214.749 75.2479C216.656 74.3868 218.732 73.9563 220.977 73.9563C221.715 73.9563 222.499 74.0024 223.329 74.0947C224.191 74.1869 224.883 74.3099 225.405 74.4637L222.361 87.8418C221.869 87.6573 221.207 87.4882 220.377 87.3344C219.577 87.1806 218.701 87.1037 217.748 87.1037C216.025 87.1037 214.38 87.4574 212.812 88.1647C211.243 88.8413 209.798 89.8562 208.475 91.2094C207.153 92.5626 205.984 94.2695 204.969 96.33C203.985 98.3598 203.201 100.728 202.616 103.434L197.727 126.5H183.841ZM252.3 127.423C246.857 127.423 242.305 126.346 238.645 124.193C234.985 122.01 232.218 118.95 230.341 115.013C228.496 111.046 227.574 106.371 227.574 100.989C227.574 97.022 228.02 93.0086 228.911 88.949C229.834 84.8894 231.218 81.0144 233.063 77.3239C234.909 73.6026 237.261 70.2965 240.121 67.4056C242.982 64.5147 246.364 62.2235 250.27 60.532C254.176 58.8405 258.635 57.9948 263.648 57.9948C267.923 57.9948 271.552 58.3946 274.535 59.1942C277.519 59.9938 280.502 61.2086 283.485 62.8386L278.041 74.3714C275.858 73.1105 273.613 72.0495 271.306 71.1884C269.03 70.3272 266.478 69.8967 263.648 69.8967C260.604 69.8967 257.897 70.5118 255.529 71.7419C253.161 72.9721 251.116 74.6482 249.394 76.7703C247.702 78.8616 246.303 81.2297 245.196 83.8745C244.089 86.4886 243.258 89.2104 242.705 92.0398C242.182 94.8692 241.92 97.6063 241.92 100.251C241.92 105.356 242.982 109.17 245.104 111.692C247.226 114.183 250.578 115.428 255.16 115.428C257.713 115.428 260.296 115.106 262.91 114.46C265.524 113.783 268.139 112.922 270.753 111.876V123.871C268.877 124.609 266.355 125.393 263.187 126.223C260.05 127.023 256.421 127.423 252.3 127.423ZM298.478 127.423C295.987 127.423 293.634 126.808 291.42 125.577C289.205 124.347 287.391 122.364 285.976 119.626C284.592 116.889 283.9 113.26 283.9 108.739C283.9 105.356 284.254 102.004 284.961 98.6827C285.699 95.3613 286.745 92.2243 288.098 89.2719C289.482 86.2887 291.143 83.6592 293.08 81.3834C295.049 79.0768 297.263 77.2623 299.723 75.9399C302.214 74.6175 304.905 73.9563 307.796 73.9563C309.98 73.9563 311.887 74.2792 313.517 74.925C315.147 75.5401 316.546 76.4166 317.714 77.5545C318.883 78.6924 319.837 80.0149 320.575 81.5218H320.944L323.573 74.925H334.276L323.296 126.5H312.917L313.563 119.811H313.194C311.963 121.318 310.626 122.64 309.18 123.778C307.735 124.916 306.135 125.808 304.382 126.454C302.629 127.1 300.661 127.423 298.478 127.423ZM303.921 116.213C305.828 116.213 307.596 115.475 309.226 113.998C310.856 112.491 312.256 110.539 313.424 108.14C314.593 105.741 315.423 103.204 315.915 100.528C316.161 99.2978 316.331 98.0676 316.423 96.8375C316.546 95.5765 316.607 94.2233 316.607 92.7779C316.607 90.5943 316.023 88.7952 314.854 87.3805C313.716 85.9351 312.148 85.2123 310.149 85.2123C308.796 85.2123 307.504 85.6583 306.274 86.5501C305.074 87.4113 303.967 88.6107 302.952 90.1484C301.938 91.6554 301.046 93.393 300.277 95.3613C299.539 97.2988 298.97 99.3593 298.57 101.543C298.17 103.726 297.97 105.91 297.97 108.094C297.97 110.769 298.493 112.799 299.539 114.183C300.584 115.536 302.045 116.213 303.921 116.213ZM337.643 126.5L348.576 74.925H359.187L358.218 84.4742H358.633C359.956 82.4137 361.416 80.5992 363.016 79.0307C364.615 77.4622 366.383 76.2321 368.321 75.3402C370.289 74.4176 372.473 73.9563 374.871 73.9563C377.824 73.9563 380.284 74.5713 382.252 75.8015C384.251 77.0009 385.743 78.7078 386.727 80.9221C387.711 83.1364 388.203 85.7659 388.203 88.8106C388.203 89.9485 388.111 91.2248 387.927 92.6395C387.742 94.0542 387.481 95.5458 387.142 97.1143L381.007 126.5H367.121L373.441 96.3762C373.687 95.3305 373.872 94.3464 373.995 93.4237C374.118 92.5011 374.179 91.6554 374.179 90.8865C374.179 88.949 373.764 87.5189 372.934 86.5963C372.103 85.6736 370.858 85.2123 369.197 85.2123C367.106 85.2123 365.215 86.1196 363.523 87.9341C361.832 89.7178 360.355 92.1167 359.094 95.1306C357.864 98.1445 356.849 101.481 356.05 105.141L351.529 126.5H337.643ZM411.777 127.423C409.285 127.423 406.933 126.808 404.718 125.577C402.504 124.347 400.69 122.364 399.275 119.626C397.891 116.859 397.199 113.199 397.199 108.647C397.199 105.295 397.553 101.958 398.26 98.6366C398.998 95.3151 400.044 92.1782 401.397 89.2258C402.781 86.2426 404.442 83.6131 406.379 81.3373C408.347 79.0307 410.562 77.2316 413.022 75.9399C415.513 74.6175 418.204 73.9563 421.095 73.9563C423.156 73.9563 424.893 74.2946 426.308 74.9711C427.753 75.6477 428.999 76.555 430.045 77.6929C431.09 78.8308 432.013 80.1071 432.813 81.5218H433.182C433.182 81.3373 433.228 80.6607 433.32 79.492C433.412 78.3234 433.551 76.9856 433.735 75.4786C433.92 73.9409 434.15 72.5262 434.427 71.2345L437.933 54.7194H451.819L436.595 126.5H426.031L426.862 119.811H426.492C425.262 121.318 423.925 122.64 422.479 123.778C421.064 124.916 419.481 125.808 417.728 126.454C415.975 127.1 413.991 127.423 411.777 127.423ZM417.589 116.213C419.035 116.213 420.342 115.828 421.51 115.059C422.71 114.26 423.755 113.214 424.647 111.922C425.57 110.6 426.354 109.124 427 107.494C427.677 105.864 428.23 104.203 428.661 102.512C429.091 100.789 429.399 99.1287 429.583 97.5294C429.799 95.9302 429.906 94.5309 429.906 93.3315C429.906 90.8711 429.322 88.9029 428.153 87.4266C427.015 85.9504 425.447 85.2123 423.448 85.2123C422.095 85.2123 420.803 85.6583 419.573 86.5501C418.373 87.4113 417.266 88.6107 416.251 90.1484C415.236 91.6554 414.345 93.393 413.576 95.3613C412.838 97.2988 412.269 99.3593 411.869 101.543C411.469 103.726 411.269 105.91 411.269 108.094C411.269 110.769 411.807 112.799 412.884 114.183C413.991 115.536 415.559 116.213 417.589 116.213ZM449.512 149.197C447.851 149.197 446.498 149.104 445.453 148.92C444.376 148.735 443.469 148.535 442.731 148.32V137.249C443.53 137.402 444.361 137.541 445.222 137.664C446.052 137.787 447.006 137.848 448.082 137.848C451.004 137.848 453.418 136.987 455.325 135.265C457.231 133.573 458.892 131.405 460.307 128.76L461.506 126.5L453.941 74.925H467.549L470.133 98.8211C470.287 100.236 470.394 101.758 470.456 103.388C470.548 104.987 470.61 106.571 470.64 108.14C470.671 109.708 470.686 111.107 470.686 112.338H471.055C471.486 111.292 471.917 110.123 472.347 108.832C472.808 107.54 473.331 106.141 473.916 104.634C474.531 103.096 475.253 101.466 476.084 99.7437L488.078 74.925H503.163L471.794 133.881C469.948 137.356 467.872 140.232 465.566 142.508C463.29 144.783 460.814 146.46 458.139 147.536C455.463 148.643 452.588 149.197 449.512 149.197ZM506.623 127.746C504.009 127.746 502.164 127.069 501.087 125.716C500.011 124.363 499.473 122.856 499.473 121.195C499.473 118.919 500.18 116.828 501.595 114.921C503.009 113.014 505.439 112.061 508.883 112.061C510.975 112.061 512.651 112.645 513.912 113.814C515.173 114.983 515.803 116.628 515.803 118.75C515.803 121.364 514.973 123.517 513.312 125.208C511.651 126.9 509.422 127.746 506.623 127.746Z" fill="white"/>
</g>
<rect x="16.2" y="16.2" width="567.6" height="147.6" rx="31.8" stroke="white" stroke-width="3.6"/>
<defs>
<filter id="filter0_d_233_1094" x="73.2485" y="54.7195" width="446.491" height="102.35" filterUnits="userSpaceOnUse" color-interpolation-filters="sRGB">
<feFlood flood-opacity="0" result="BackgroundImageFix"/>
<feColorMatrix in="SourceAlpha" type="matrix" values="0 0 0 0 0 0 0 0 0 0 0 0 0 0 0 0 0 0 127 0" result="hardAlpha"/>
<feOffset dy="3.93655"/>
<feGaussianBlur stdDeviation="1.96828"/>
<feComposite in2="hardAlpha" operator="out"/>
<feColorMatrix type="matrix" values="0 0 0 0 0 0 0 0 0 0 0 0 0 0 0 0 0 0 0.25 0"/>
<feBlend mode="normal" in2="BackgroundImageFix" result="effect1_dropShadow_233_1094"/>
<feBlend mode="normal" in="SourceGraphic" in2="effect1_dropShadow_233_1094" result="shape"/>
</filter>
</defs>
</svg>
