<svg width="144" height="54" viewBox="0 0 144 54" fill="none" xmlns="http://www.w3.org/2000/svg">
<path d="M23.2929 32.6148L29.6063 19.9803C30.5925 18.0066 33.4075 18.0066 34.3937 19.9803L40.7071 32.6148C41.83 34.8619 39.5209 37.2798 37.2265 36.2595L33.0869 34.4185C32.3949 34.1108 31.6051 34.1108 30.9131 34.4185L26.7735 36.2595C24.4791 37.2798 22.17 34.8619 23.2929 32.6148Z" stroke="#CBE4DE" stroke-width="2" stroke-linecap="round"/>
<path d="M53.37 22.06C52.97 22.06 52.6367 22 52.37 21.88C52.11 21.7533 51.9067 21.58 51.76 21.36C51.6133 21.14 51.51 20.8867 51.45 20.6C51.3967 20.3067 51.37 19.99 51.37 19.65C51.37 19.3367 51.4 19.0367 51.46 18.75C51.52 18.4567 51.6233 18.1967 51.77 17.97C51.9167 17.7367 52.12 17.5533 52.38 17.42C52.64 17.2867 52.9667 17.22 53.36 17.22C53.64 17.22 53.88 17.25 54.08 17.31C54.2867 17.3633 54.46 17.45 54.6 17.57C54.6333 17.6033 54.6533 17.63 54.66 17.65C54.6733 17.6633 54.68 17.69 54.68 17.73V18.17C54.68 18.21 54.6667 18.2333 54.64 18.24C54.6133 18.24 54.5867 18.2267 54.56 18.2C54.4267 18.0667 54.2567 17.97 54.05 17.91C53.8433 17.85 53.6367 17.82 53.43 17.82C53.1767 17.82 52.96 17.8733 52.78 17.98C52.6067 18.0867 52.47 18.23 52.37 18.41C52.27 18.59 52.1967 18.79 52.15 19.01C52.1033 19.2233 52.08 19.44 52.08 19.66C52.08 20.0267 52.1233 20.35 52.21 20.63C52.2967 20.9033 52.4367 21.1167 52.63 21.27C52.83 21.4167 53.09 21.49 53.41 21.49C53.6167 21.49 53.8033 21.47 53.97 21.43C54.1367 21.3833 54.2967 21.3233 54.45 21.25C54.5167 21.2167 54.5633 21.23 54.59 21.29L54.74 21.61C54.76 21.6433 54.7633 21.67 54.75 21.69C54.7433 21.7033 54.7267 21.72 54.7 21.74C54.54 21.8467 54.3433 21.9267 54.11 21.98C53.8767 22.0333 53.63 22.06 53.37 22.06ZM55.6153 21.93V14.99C55.6153 14.9433 55.6386 14.92 55.6853 14.92H56.2453C56.2986 14.92 56.3253 14.9433 56.3253 14.99V21.93C56.3253 21.9767 56.2986 22 56.2453 22H55.6853C55.6386 22 55.6153 21.9767 55.6153 21.93ZM58.4163 15.98C58.4163 16.1 58.3897 16.1933 58.3363 16.26C58.2897 16.32 58.183 16.35 58.0163 16.35C57.8563 16.35 57.7463 16.32 57.6863 16.26C57.633 16.1933 57.6063 16.1 57.6063 15.98C57.6063 15.8667 57.633 15.78 57.6863 15.72C57.7463 15.6533 57.8563 15.62 58.0163 15.62C58.1897 15.62 58.2997 15.6533 58.3463 15.72C58.393 15.78 58.4163 15.8667 58.4163 15.98ZM58.3763 21.93C58.3763 21.9767 58.3497 22 58.2963 22H57.7363C57.6897 22 57.6663 21.9767 57.6663 21.93V17.35C57.6663 17.3033 57.6897 17.28 57.7363 17.28H58.2963C58.3497 17.28 58.3763 17.3033 58.3763 17.35V21.93ZM61.3778 22.06C60.9778 22.06 60.6445 22 60.3778 21.88C60.1178 21.7533 59.9145 21.58 59.7678 21.36C59.6211 21.14 59.5178 20.8867 59.4578 20.6C59.4045 20.3067 59.3778 19.99 59.3778 19.65C59.3778 19.3367 59.4078 19.0367 59.4678 18.75C59.5278 18.4567 59.6311 18.1967 59.7778 17.97C59.9245 17.7367 60.1278 17.5533 60.3878 17.42C60.6478 17.2867 60.9745 17.22 61.3678 17.22C61.6478 17.22 61.8878 17.25 62.0878 17.31C62.2945 17.3633 62.4678 17.45 62.6078 17.57C62.6411 17.6033 62.6611 17.63 62.6678 17.65C62.6811 17.6633 62.6878 17.69 62.6878 17.73V18.17C62.6878 18.21 62.6745 18.2333 62.6478 18.24C62.6211 18.24 62.5945 18.2267 62.5678 18.2C62.4345 18.0667 62.2645 17.97 62.0578 17.91C61.8511 17.85 61.6445 17.82 61.4378 17.82C61.1845 17.82 60.9678 17.8733 60.7878 17.98C60.6145 18.0867 60.4778 18.23 60.3778 18.41C60.2778 18.59 60.2045 18.79 60.1578 19.01C60.1111 19.2233 60.0878 19.44 60.0878 19.66C60.0878 20.0267 60.1311 20.35 60.2178 20.63C60.3045 20.9033 60.4445 21.1167 60.6378 21.27C60.8378 21.4167 61.0978 21.49 61.4178 21.49C61.6245 21.49 61.8111 21.47 61.9778 21.43C62.1445 21.3833 62.3045 21.3233 62.4578 21.25C62.5245 21.2167 62.5711 21.23 62.5978 21.29L62.7478 21.61C62.7678 21.6433 62.7711 21.67 62.7578 21.69C62.7511 21.7033 62.7345 21.72 62.7078 21.74C62.5478 21.8467 62.3511 21.9267 62.1178 21.98C61.8845 22.0333 61.6378 22.06 61.3778 22.06ZM63.6231 21.96V15.06C63.6231 15.0333 63.6365 15.02 63.6631 15.02H64.2931C64.3198 15.02 64.3331 15.0333 64.3331 15.06V19.05C64.3331 19.0633 64.3365 19.08 64.3431 19.1C64.3498 19.12 64.3631 19.13 64.3831 19.13C64.4698 19.13 64.5565 19.1267 64.6431 19.12C64.7365 19.1133 64.8265 19.11 64.9131 19.11C64.9731 19.0967 65.0165 19.0833 65.0431 19.07C65.0765 19.05 65.1165 19.01 65.1631 18.95C65.2965 18.7967 65.4165 18.63 65.5231 18.45C65.6298 18.27 65.7265 18.0867 65.8131 17.9C65.9065 17.7133 65.9865 17.5367 66.0531 17.37C66.0731 17.3233 66.0931 17.2967 66.1131 17.29C66.1331 17.2833 66.1631 17.28 66.2031 17.28H66.7731C66.8131 17.28 66.8365 17.29 66.8431 17.31C66.8498 17.33 66.8465 17.3533 66.8331 17.38C66.8265 17.3867 66.7931 17.4533 66.7331 17.58C66.6798 17.7067 66.6031 17.8667 66.5031 18.06C66.4098 18.2467 66.2998 18.4433 66.1731 18.65C66.0465 18.8567 65.9098 19.05 65.7631 19.23C65.7365 19.2567 65.7131 19.2833 65.6931 19.31C65.6731 19.33 65.6531 19.3533 65.6331 19.38C65.6465 19.3867 65.6631 19.3967 65.6831 19.41C65.7031 19.4233 65.7165 19.4367 65.7231 19.45C65.8365 19.57 65.9531 19.73 66.0731 19.93C66.1931 20.1233 66.3098 20.3333 66.4231 20.56C66.5431 20.7867 66.6498 21 66.7431 21.2C66.8365 21.4 66.9098 21.5667 66.9631 21.7C67.0231 21.8333 67.0565 21.9067 67.0631 21.92C67.0898 21.9733 67.0798 22 67.0331 22C67.0131 22 66.9698 22 66.9031 22C66.8431 22 66.7765 22 66.7031 22C66.6365 22 66.5731 22 66.5131 22C66.4531 22 66.4131 22 66.3931 22C66.3665 22 66.3498 22 66.3431 22C66.3365 21.9933 66.3231 21.97 66.3031 21.93C66.3031 21.93 66.2798 21.88 66.2331 21.78C66.1865 21.6733 66.1231 21.5367 66.0431 21.37C65.9698 21.2033 65.8831 21.03 65.7831 20.85C65.6898 20.6633 65.5931 20.4867 65.4931 20.32C65.3998 20.1467 65.3098 20.01 65.2231 19.91C65.1898 19.8567 65.1431 19.81 65.0831 19.77C65.0298 19.73 64.9498 19.7033 64.8431 19.69C64.7365 19.67 64.5831 19.6667 64.3831 19.68C64.3498 19.6867 64.3331 19.72 64.3331 19.78V21.96C64.3331 21.9867 64.3198 22 64.2931 22H63.6631C63.6365 22 63.6231 21.9867 63.6231 21.96ZM70.2312 21.93C70.2312 20.77 70.2312 19.6133 70.2312 18.46C70.2312 17.3067 70.2312 16.15 70.2312 14.99C70.2312 14.9433 70.2578 14.92 70.3112 14.92C70.4045 14.92 70.4978 14.92 70.5912 14.92C70.6912 14.92 70.7845 14.92 70.8712 14.92C70.9245 14.92 70.9512 14.9433 70.9512 14.99C70.9512 15.3767 70.9512 15.7667 70.9512 16.16C70.9512 16.5467 70.9512 16.93 70.9512 17.31C70.9512 17.3567 70.9578 17.3867 70.9712 17.4C70.9912 17.4133 71.0212 17.4133 71.0612 17.4C71.2078 17.36 71.3712 17.3233 71.5512 17.29C71.7378 17.25 71.9245 17.23 72.1112 17.23C72.3578 17.23 72.5845 17.27 72.7912 17.35C73.0045 17.4233 73.1878 17.55 73.3412 17.73C73.4945 17.91 73.6145 18.1567 73.7012 18.47C73.7878 18.7767 73.8345 19.1667 73.8412 19.64C73.8412 19.9 73.8345 20.1667 73.8212 20.44C73.8145 20.7133 73.8012 20.98 73.7812 21.24C73.7612 21.4933 73.7378 21.7233 73.7112 21.93C73.7112 21.9567 73.7012 21.9767 73.6812 21.99C73.6612 21.9967 73.6312 22 73.5912 22C73.5112 22 73.4312 22 73.3512 22C73.2778 22 73.2012 22 73.1212 22C73.0612 22 73.0245 21.9933 73.0112 21.98C73.0045 21.9667 73.0078 21.9267 73.0212 21.86C73.0545 21.5533 73.0778 21.2233 73.0912 20.87C73.1045 20.5167 73.1145 20.17 73.1212 19.83C73.1212 19.4433 73.0912 19.12 73.0312 18.86C72.9778 18.5933 72.8978 18.3833 72.7912 18.23C72.6912 18.0767 72.5712 17.9667 72.4312 17.9C72.2912 17.8333 72.1378 17.8 71.9712 17.8C71.8512 17.8 71.7112 17.8133 71.5512 17.84C71.3978 17.8667 71.2512 17.8967 71.1112 17.93C71.0645 17.9433 71.0245 17.9667 70.9912 18C70.9645 18.0333 70.9512 18.09 70.9512 18.17V21.93C70.9512 21.9767 70.9245 22 70.8712 22H70.3112C70.2578 22 70.2312 21.9767 70.2312 21.93ZM74.7203 19.63C74.7203 19.3167 74.7503 19.0167 74.8103 18.73C74.877 18.4433 74.9836 18.1867 75.1303 17.96C75.277 17.7267 75.477 17.5467 75.7303 17.42C75.9903 17.2867 76.3203 17.22 76.7203 17.22C77.127 17.22 77.4536 17.28 77.7003 17.4C77.947 17.52 78.1303 17.68 78.2503 17.88C78.377 18.08 78.4603 18.3 78.5003 18.54C78.547 18.78 78.5703 19.02 78.5703 19.26C78.5703 19.5067 78.5436 19.66 78.4903 19.72C78.4436 19.78 78.3703 19.81 78.2703 19.81H75.5403C75.5203 19.81 75.497 19.8167 75.4703 19.83C75.4503 19.8433 75.4403 19.88 75.4403 19.94C75.4403 20.2467 75.4903 20.52 75.5903 20.76C75.6903 20.9933 75.8436 21.1767 76.0503 21.31C76.2636 21.4433 76.5303 21.51 76.8503 21.51C77.0703 21.51 77.3003 21.4833 77.5403 21.43C77.7803 21.37 77.9803 21.3 78.1403 21.22C78.1936 21.1867 78.237 21.1667 78.2703 21.16C78.3036 21.1533 78.3336 21.18 78.3603 21.24L78.4903 21.49C78.5103 21.53 78.5136 21.56 78.5003 21.58C78.4936 21.5933 78.4703 21.6133 78.4303 21.64C78.217 21.78 77.957 21.8867 77.6503 21.96C77.3503 22.0267 77.0436 22.06 76.7303 22.06C76.317 22.06 75.9803 22 75.7203 21.88C75.4603 21.7533 75.257 21.58 75.1103 21.36C74.9636 21.1333 74.8603 20.8733 74.8003 20.58C74.747 20.2867 74.7203 19.97 74.7203 19.63ZM77.8403 19.14C77.8403 18.9 77.8103 18.68 77.7503 18.48C77.6903 18.2733 77.577 18.1067 77.4103 17.98C77.2503 17.8533 77.0136 17.79 76.7003 17.79C76.4736 17.79 76.2803 17.8333 76.1203 17.92C75.9603 18.0067 75.8336 18.12 75.7403 18.26C75.647 18.3933 75.577 18.5433 75.5303 18.71C75.4836 18.87 75.4536 19.0233 75.4403 19.17C75.4403 19.2367 75.4436 19.2833 75.4503 19.31C75.4636 19.33 75.497 19.34 75.5503 19.34H77.6703C77.737 19.34 77.7836 19.33 77.8103 19.31C77.837 19.29 77.847 19.2333 77.8403 19.14ZM81.0299 17.23C81.4366 17.23 81.7799 17.2833 82.0599 17.39C82.0933 17.41 82.1166 17.4267 82.1299 17.44C82.1499 17.4533 82.1566 17.4767 82.1499 17.51L82.0499 17.89C82.0433 17.9233 82.0299 17.9433 82.0099 17.95C81.9966 17.9567 81.9733 17.9533 81.9399 17.94C81.8199 17.9 81.6899 17.8733 81.5499 17.86C81.4099 17.84 81.2799 17.83 81.1599 17.83C81.0533 17.83 80.9433 17.84 80.8299 17.86C80.7166 17.88 80.6133 17.9033 80.5199 17.93C80.4333 17.95 80.3666 17.97 80.3199 17.99C80.2933 18.01 80.2599 18.0333 80.2199 18.06C80.1799 18.0867 80.1599 18.1467 80.1599 18.24V21.89C80.1599 21.9367 80.1533 21.9667 80.1399 21.98C80.1266 21.9933 80.1033 22 80.0699 22H79.5299C79.5099 22 79.4899 21.9933 79.4699 21.98C79.4566 21.9667 79.4499 21.9433 79.4499 21.91V17.82C79.4499 17.72 79.4633 17.6533 79.4899 17.62C79.5166 17.5867 79.5566 17.5567 79.6099 17.53C79.8099 17.4367 80.0433 17.3633 80.3099 17.31C80.5766 17.2567 80.8166 17.23 81.0299 17.23ZM82.5914 19.63C82.5914 19.3167 82.6214 19.0167 82.6814 18.73C82.7481 18.4433 82.8547 18.1867 83.0014 17.96C83.1481 17.7267 83.3481 17.5467 83.6014 17.42C83.8614 17.2867 84.1914 17.22 84.5914 17.22C84.9981 17.22 85.3247 17.28 85.5714 17.4C85.8181 17.52 86.0014 17.68 86.1214 17.88C86.2481 18.08 86.3314 18.3 86.3714 18.54C86.4181 18.78 86.4414 19.02 86.4414 19.26C86.4414 19.5067 86.4147 19.66 86.3614 19.72C86.3147 19.78 86.2414 19.81 86.1414 19.81H83.4114C83.3914 19.81 83.3681 19.8167 83.3414 19.83C83.3214 19.8433 83.3114 19.88 83.3114 19.94C83.3114 20.2467 83.3614 20.52 83.4614 20.76C83.5614 20.9933 83.7147 21.1767 83.9214 21.31C84.1347 21.4433 84.4014 21.51 84.7214 21.51C84.9414 21.51 85.1714 21.4833 85.4114 21.43C85.6514 21.37 85.8514 21.3 86.0114 21.22C86.0647 21.1867 86.1081 21.1667 86.1414 21.16C86.1747 21.1533 86.2047 21.18 86.2314 21.24L86.3614 21.49C86.3814 21.53 86.3847 21.56 86.3714 21.58C86.3647 21.5933 86.3414 21.6133 86.3014 21.64C86.0881 21.78 85.8281 21.8867 85.5214 21.96C85.2214 22.0267 84.9147 22.06 84.6014 22.06C84.1881 22.06 83.8514 22 83.5914 21.88C83.3314 21.7533 83.1281 21.58 82.9814 21.36C82.8347 21.1333 82.7314 20.8733 82.6714 20.58C82.6181 20.2867 82.5914 19.97 82.5914 19.63ZM85.7114 19.14C85.7114 18.9 85.6814 18.68 85.6214 18.48C85.5614 18.2733 85.4481 18.1067 85.2814 17.98C85.1214 17.8533 84.8847 17.79 84.5714 17.79C84.3447 17.79 84.1514 17.8333 83.9914 17.92C83.8314 18.0067 83.7047 18.12 83.6114 18.26C83.5181 18.3933 83.4481 18.5433 83.4014 18.71C83.3547 18.87 83.3247 19.0233 83.3114 19.17C83.3114 19.2367 83.3147 19.2833 83.3214 19.31C83.3347 19.33 83.3681 19.34 83.4214 19.34H85.5414C85.6081 19.34 85.6547 19.33 85.6814 19.31C85.7081 19.29 85.7181 19.2333 85.7114 19.14ZM90.2429 21.92C90.2229 21.6867 90.2029 21.41 90.1829 21.09C90.1696 20.77 90.1562 20.43 90.1429 20.07C90.1362 19.7033 90.1296 19.3367 90.1229 18.97C90.1162 18.6033 90.1129 18.2567 90.1129 17.93C90.1129 17.87 90.0862 17.84 90.0329 17.84H89.4429C89.4162 17.84 89.3962 17.8333 89.3829 17.82C89.3762 17.8067 89.3729 17.7867 89.3729 17.76V17.36C89.3729 17.3333 89.3762 17.3133 89.3829 17.3C89.3962 17.2867 89.4196 17.28 89.4529 17.28H90.0329C90.0662 17.28 90.0862 17.2767 90.0929 17.27C90.1062 17.2567 90.1129 17.23 90.1129 17.19C90.1062 16.8633 90.1162 16.5633 90.1429 16.29C90.1762 16.0167 90.2696 15.7667 90.4229 15.54C90.5762 15.32 90.7896 15.1567 91.0629 15.05C91.3362 14.9367 91.6696 14.88 92.0629 14.88C92.2562 14.88 92.4329 14.91 92.5929 14.97C92.7596 15.0233 92.8729 15.0667 92.9329 15.1C92.9796 15.1267 93.0062 15.15 93.0129 15.17C93.0262 15.1833 93.0296 15.2033 93.0229 15.23L92.9229 15.55C92.9162 15.5833 92.9062 15.6033 92.8929 15.61C92.8796 15.6167 92.8596 15.6133 92.8329 15.6C92.7529 15.5533 92.6462 15.5133 92.5129 15.48C92.3862 15.4467 92.2329 15.4333 92.0529 15.44C91.7529 15.44 91.5062 15.4933 91.3129 15.6C91.1262 15.7 91.0029 15.8833 90.9429 16.15C90.8896 16.3167 90.8562 16.4867 90.8429 16.66C90.8296 16.8333 90.8229 17.01 90.8229 17.19C90.8229 17.2233 90.8296 17.2467 90.8429 17.26C90.8562 17.2733 90.8762 17.28 90.9029 17.28H92.4029C92.4296 17.28 92.4462 17.2867 92.4529 17.3C92.4662 17.3067 92.4729 17.33 92.4729 17.37V17.76C92.4729 17.78 92.4662 17.8 92.4529 17.82C92.4396 17.8333 92.4196 17.84 92.3929 17.84H90.9129C90.8862 17.84 90.8629 17.8467 90.8429 17.86C90.8296 17.8733 90.8229 17.8967 90.8229 17.93C90.8229 18.2433 90.8262 18.59 90.8329 18.97C90.8396 19.35 90.8496 19.73 90.8629 20.11C90.8762 20.49 90.8896 20.84 90.9029 21.16C90.9162 21.4733 90.9296 21.73 90.9429 21.93C90.9429 21.9567 90.9396 21.9767 90.9329 21.99C90.9262 22.0033 90.9096 22.01 90.8829 22.01H90.3129C90.2996 22.01 90.2862 22.0033 90.2729 21.99C90.2596 21.9767 90.2496 21.9533 90.2429 21.92ZM94.876 22.06C94.336 22.06 93.916 21.9567 93.616 21.75C93.316 21.5433 93.106 21.2567 92.986 20.89C92.8727 20.5233 92.816 20.1033 92.816 19.63C92.816 19.1633 92.8793 18.75 93.006 18.39C93.1393 18.0233 93.356 17.7367 93.656 17.53C93.956 17.3233 94.3627 17.22 94.876 17.22C95.396 17.22 95.806 17.3233 96.106 17.53C96.406 17.7367 96.6193 18.0233 96.746 18.39C96.8793 18.75 96.946 19.1633 96.946 19.63C96.946 20.0967 96.886 20.5133 96.766 20.88C96.6527 21.2467 96.446 21.5367 96.146 21.75C95.8527 21.9567 95.4293 22.06 94.876 22.06ZM94.876 21.49C95.376 21.49 95.7227 21.33 95.916 21.01C96.116 20.6833 96.216 20.2267 96.216 19.64C96.216 19.0533 96.1093 18.6033 95.896 18.29C95.6827 17.9767 95.3427 17.82 94.876 17.82C94.416 17.82 94.076 17.9767 93.856 18.29C93.6427 18.6033 93.536 19.0533 93.536 19.64C93.536 20.2333 93.636 20.69 93.836 21.01C94.036 21.33 94.3827 21.49 94.876 21.49ZM99.4577 17.23C99.8643 17.23 100.208 17.2833 100.488 17.39C100.521 17.41 100.544 17.4267 100.558 17.44C100.578 17.4533 100.584 17.4767 100.578 17.51L100.478 17.89C100.471 17.9233 100.458 17.9433 100.438 17.95C100.424 17.9567 100.401 17.9533 100.368 17.94C100.248 17.9 100.118 17.8733 99.9777 17.86C99.8377 17.84 99.7077 17.83 99.5877 17.83C99.481 17.83 99.371 17.84 99.2577 17.86C99.1443 17.88 99.041 17.9033 98.9477 17.93C98.861 17.95 98.7943 17.97 98.7477 17.99C98.721 18.01 98.6877 18.0333 98.6477 18.06C98.6077 18.0867 98.5877 18.1467 98.5877 18.24V21.89C98.5877 21.9367 98.581 21.9667 98.5677 21.98C98.5543 21.9933 98.531 22 98.4977 22H97.9577C97.9377 22 97.9177 21.9933 97.8977 21.98C97.8843 21.9667 97.8777 21.9433 97.8777 21.91V17.82C97.8777 17.72 97.891 17.6533 97.9177 17.62C97.9443 17.5867 97.9843 17.5567 98.0377 17.53C98.2377 17.4367 98.471 17.3633 98.7377 17.31C99.0043 17.2567 99.2443 17.23 99.4577 17.23Z" fill="#CBE4DE"/>
<path d="M55.76 27.2C55.186 27.2 54.024 27.214 53.506 27.214V27.2H51.378V37H53.506V34.27C53.94 34.27 55.396 34.27 55.76 34.27C56.684 34.27 59.946 34.396 59.946 30.742C59.946 27.214 56.936 27.2 55.76 27.2ZM55.83 32.422C55.648 32.422 53.982 32.422 53.506 32.422V29.048C54.08 29.048 55.48 29.048 55.872 29.048C56.586 29.048 57.944 29.048 57.944 30.742C57.944 32.506 56.404 32.422 55.83 32.422ZM65.2519 29.146C63.8939 29.146 63.4179 29.552 62.9699 30.308H62.8439V29.146H60.7159V37H62.8439V33.486C62.8439 32.422 63.3059 31.19 64.8879 31.19C65.5599 31.19 66.1059 31.302 66.3019 31.358L66.6379 29.356C66.2739 29.272 65.8119 29.146 65.2519 29.146ZM74.7881 33.57H74.8721C74.9841 32.492 74.8441 30.84 73.3321 29.804V29.818C72.6741 29.356 71.7781 29.076 70.6721 29.076C68.0261 29.076 66.4581 30.476 66.4581 33.038C66.4581 35.656 67.9841 37 70.6721 37C73.2481 37 74.6201 35.964 74.8301 34.27H72.7721C72.5761 34.788 71.9461 35.138 70.6721 35.138C69.3001 35.138 68.6701 34.62 68.5161 33.57H74.7881ZM70.6721 30.938C72.1841 30.938 72.5761 31.582 72.7441 32.17H68.6001C68.8521 31.372 69.4961 30.938 70.6721 30.938ZM82.4353 34.004V31.89H75.6593V34.004H82.4353ZM87.5741 29.006C85.1941 29.006 83.2061 30.308 83.2061 33.01C83.2061 35.726 85.1941 37 87.5741 37C89.9681 37 91.9561 35.768 91.9561 33.01C91.9561 30.28 89.9681 29.006 87.5741 29.006ZM87.5741 35.068C86.2441 35.068 85.2921 34.48 85.2921 33.01C85.2921 31.526 86.2441 30.952 87.5741 30.952C88.9181 30.952 89.8701 31.554 89.8701 33.01C89.8701 34.424 88.9181 35.068 87.5741 35.068ZM97.1894 29.146C95.8314 29.146 95.3554 29.552 94.9074 30.308H94.7814V29.146H92.6534V37H94.7814V33.486C94.7814 32.422 95.2434 31.19 96.8254 31.19C97.4974 31.19 98.0434 31.302 98.2394 31.358L98.5754 29.356C98.2114 29.272 97.7494 29.146 97.1894 29.146ZM104.923 26.892V30.308H104.797C104.265 29.608 103.383 29.146 101.927 29.146C98.6089 29.146 98.2589 31.932 98.2589 33.08C98.2589 34.13 98.6229 37 101.913 37C103.397 37 104.293 36.594 104.825 35.908H104.923V37H107.051V26.892H104.923ZM102.543 35.18C100.513 35.18 100.289 33.64 100.289 33.08C100.289 32.464 100.499 30.98 102.543 30.98C104.377 30.98 104.755 32.016 104.755 33.08C104.755 34.27 104.377 35.18 102.543 35.18ZM116.009 33.57H116.093C116.205 32.492 116.065 30.84 114.553 29.804V29.818C113.895 29.356 112.999 29.076 111.893 29.076C109.247 29.076 107.679 30.476 107.679 33.038C107.679 35.656 109.205 37 111.893 37C114.469 37 115.841 35.964 116.051 34.27H113.993C113.797 34.788 113.167 35.138 111.893 35.138C110.521 35.138 109.891 34.62 109.737 33.57H116.009ZM111.893 30.938C113.405 30.938 113.797 31.582 113.965 32.17H109.821C110.073 31.372 110.717 30.938 111.893 30.938ZM121.266 29.146C119.908 29.146 119.432 29.552 118.984 30.308H118.858V29.146H116.73V37H118.858V33.486C118.858 32.422 119.32 31.19 120.902 31.19C121.574 31.19 122.12 31.302 122.316 31.358L122.652 29.356C122.288 29.272 121.826 29.146 121.266 29.146Z" fill="#CBE4DE"/>
<rect x="1" y="1" width="142" height="52" rx="7" stroke="white" stroke-width="2"/>
</svg>
