<svg width="40" height="40" viewBox="0 0 40 40" fill="none" xmlns="http://www.w3.org/2000/svg">
<path d="M25.8333 14.1668L32.0464 18.9992C32.8584 19.6308 33.3333 20.6137 33.3333 21.6424C33.3333 23.4833 31.8409 25.0001 30 25.0001H23.3333M14.1666 14.1668L7.95349 18.9992C7.14153 19.6308 6.66663 20.6137 6.66663 21.6424C6.66663 23.4833 8.15901 25.0001 9.99996 25.0001H16.6666M13.3333 31.6668H18.3333M21.6666 31.6668H26.6666M14.8206 13.7316L19.1845 34.46C19.3702 35.3423 20.6297 35.3423 20.8154 34.46L25.1793 13.7316C26.0555 9.56951 24.0134 5.34021 20.2091 3.43805C20.0775 3.37221 19.9225 3.37221 19.7908 3.43805C15.9865 5.34021 13.9444 9.56952 14.8206 13.7316Z" stroke="white" stroke-width="3.33333" stroke-linecap="round"/>
</svg>
