<svg width="40" height="40" viewBox="0 0 40 40" fill="none" xmlns="http://www.w3.org/2000/svg">
<path d="M13.3333 30V8.33333C13.3333 6.49238 14.8257 5 16.6667 5H26.6667C28.5076 5 30 6.49238 30 8.33333V30M13.3333 11.6667H30M13.3333 30.8333C13.3333 33.1345 11.4679 35 9.16667 35C6.86548 35 5 33.1345 5 30.8333C5 28.5321 6.86548 26.6667 9.16667 26.6667C11.4679 26.6667 13.3333 28.5321 13.3333 30.8333ZM30 30.8333C30 33.1345 28.1345 35 25.8333 35C23.5321 35 21.6667 33.1345 21.6667 30.8333C21.6667 28.5321 23.5321 26.6667 25.8333 26.6667C28.1345 26.6667 30 28.5321 30 30.8333Z" stroke="white" stroke-width="3.33333" stroke-linecap="round"/>
</svg>
