<svg width="1229" height="360" viewBox="0 0 1229 360" fill="none" xmlns="http://www.w3.org/2000/svg">
<path d="M363.929 360L233.563 175.225L355.849 0.684497H263.73L182.386 123.509L99.9644 0.684497H8.92343L131.209 175.763L0.842873 360H91.8838L182.386 228.556L272.35 360H363.929ZM835.817 360V0.684497H728.076L640.806 217.782L553.536 0.684497H446.334V360H522.83V108.425L624.106 360H657.506L758.782 108.425V360H835.817ZM1181.92 360V285.659H1228.25V218.321H1181.92V0.684497H1076.33L933.575 225.324V285.659H1105.42V360H1181.92ZM1105.42 218.321H1008.45L1105.42 68.5612V218.321Z" fill="#CBE4DE" fill-opacity="0.25"/>
</svg>
