<svg width="40" height="40" viewBox="0 0 40 40" fill="none" xmlns="http://www.w3.org/2000/svg">
<path d="M36.6666 23.3329L33.3335 19.9999M33.3335 19.9999L30 16.6666M33.3335 19.9999L30.0001 23.3332M33.3335 19.9999L36.6667 16.6668M6.66671 26.6666H8.33337C9.25385 26.6666 10 25.9204 10 24.9999V14.9999C10 14.0794 9.25385 13.3332 8.33337 13.3332H6.66671C4.82576 13.3332 3.33337 14.8256 3.33337 16.6666V23.3332C3.33337 25.1742 4.82576 26.6666 6.66671 26.6666ZM10.9214 12.8726L20.9214 7.87256C22.0295 7.31848 23.3334 8.12431 23.3334 9.36328V30.6365C23.3334 31.8755 22.0295 32.6813 20.9214 32.1272L10.9214 27.1272C10.3567 26.8449 10 26.2678 10 25.6365V14.3633C10 13.732 10.3567 13.1549 10.9214 12.8726Z" stroke="white" stroke-width="3.33333" stroke-linecap="round"/>
</svg>
